<?xml version="1.0" encoding="utf-8"?>
<!-- Generator: Adobe Illustrator 18.1.0, SVG Export Plug-In . SVG Version: 6.00 Build 0)  -->
<svg version="1.1" id="chat" xmlns="http://www.w3.org/2000/svg" xmlns:xlink="http://www.w3.org/1999/xlink" x="0px" y="0px"
	 viewBox="0 0 512 512" enable-background="new 0 0 512 512" xml:space="preserve">
<path class="chat" d="M256.5,43.5c-122.607,0-222,78.798-222,176c0,87.304,80.187,159.748,185.354,173.599
	c-0.648,17.876-9.647,51.419-62.666,75.618c0,0,170.462-26.5,191.287-88c0.128-0.379,0.245-0.752,0.361-1.125
	C425.346,351.811,478.5,290.58,478.5,219.5C478.5,122.298,379.107,43.5,256.5,43.5z M122.5,159.5v-12c0-6.6,5.4-12,12-12h176
	c6.6,0,12,5.4,12,12v12c0,6.6-5.4,12-12,12h-176C127.9,171.5,122.5,166.1,122.5,159.5z M146.5,231.5v-12c0-6.6,5.4-12,12-12h200
	c6.6,0,12,5.4,12,12v12c0,6.6-5.4,12-12,12h-200C151.9,243.5,146.5,238.1,146.5,231.5z M394.5,307.5c0,6.6-5.4,12-12,12h-176
	c-6.6,0-12-5.4-12-12v-8c0-6.6,5.4-12,12-12h176c6.6,0,12,5.4,12,12V307.5z"/>
</svg>
